Coordinates
version=1
nRows=24
nColumns=24
inDegrees=yes

Units are S.I. units (second, meters, Newtons, ...)
Angles are in degrees.

endheader
time	pelvis_tilt	pelvis_list	pelvis_rotation	pelvis_tx	pelvis_ty	pelvis_tz	hip_flexion_r	hip_adduction_r	hip_rotation_r	knee_angle_r	ankle_angle_r	subtalar_angle_r	mtp_angle_r	hip_flexion_l	hip_adduction_l	hip_rotation_l	knee_angle_l	ankle_angle_l	subtalar_angle_l	mtp_angle_l	lumbar_extension	lumbar_bending	lumbar_rotation
      6.16000000	    -11.38769223	      1.62753504	     -5.57263952	     -1.78209860	     -0.02854548	     -0.24681633	     -4.13546447	      1.26957589	      8.07231975	    -15.19198050	      7.93028631	      6.86922468	     20.47226915	     34.31364305	     -1.62539337	     -1.51183834	     -8.13669187	     -0.37112235	      1.43222584	      8.05664657	      7.58685411	     -1.36663132	     12.99906485
      6.16500000	    -11.42728052	      1.77401530	     -5.56241117	     -1.77534648	     -0.02935435	     -0.24762569	     -4.20567893	      0.99109967	      7.83941089	    -15.76457431	      7.71822350	      7.44622698	     20.67487032	     34.33925132	     -1.43107408	     -1.62659077	     -8.79785352	     -0.77336980	      1.24049901	      8.09121070	      7.82228015	     -1.50937913	     12.98269848
      6.17000000	    -11.50112363	      1.91942405	     -5.50857413	     -1.76862558	     -0.03015203	     -0.24851359	     -4.20860338	      0.70703597	      7.47495190	    -16.37561884	      7.46621456	      8.12985698	     20.99291736	     34.41978809	     -1.21200626	     -1.68170643	     -9.46932381	     -1.27094411	      1.04351380	      8.18912427	      8.08669377	     -1.65944242	     12.89905528
      6.17500000	    -11.57265928	      2.06226773	     -5.43454484	     -1.76201465	     -0.03087850	     -0.24951432	     -4.16670240	      0.41072281	      7.05082941	    -17.04577240	      7.14541106	      8.91218835	     21.52059225	     34.50607349	     -0.97062883	     -1.64027513	    -10.11975707	     -1.89400732	      0.76317792	      8.42338089	      8.32624653	     -1.79526246	     12.78306324
      6.18000000	    -11.66560185	      2.28623546	     -5.32075747	     -1.75533164	     -0.03151428	     -0.25051575	     -4.09183564	      0.03304099	      6.61975694	    -17.71964019	      6.72348483	      9.61070528	     22.04893428	     34.61518598	     -0.63030735	     -1.63039862	    -10.75073690	     -2.56701516	      0.55810999	      8.65887872	      8.60957041	     -2.03302880	     12.66685264
      6.18500000	    -11.76315213	      2.54670818	     -5.17585505	     -1.74869744	     -0.03204456	     -0.25154119	     -3.97610544	     -0.38893006	      6.12281229	    -18.43469880	      6.22609325	     10.34839751	     22.65001850	     34.73792290	     -0.23085256	     -1.54305073	    -11.38140289	     -3.27228589	      0.37868803	      8.90918461	      8.89162513	     -2.32202116	     12.52313503
      6.19000000	    -11.86821878	      2.87406733	     -5.01738380	     -1.74205834	     -0.03246627	     -0.25252310	     -3.81225719	     -0.88053851	      5.62254533	    -19.20968500	      5.67499167	     11.08471378	     23.20361572	     34.85746197	      0.24232383	     -1.38723945	    -11.99727256	     -3.92942388	      0.29782706	      9.09041402	      9.19069808	     -2.69946461	     12.33718777
      6.19500000	    -11.97144721	      3.21749702	     -4.81211214	     -1.73547730	     -0.03277813	     -0.25358374	     -3.61927623	     -1.40299282	      5.02655097	    -20.02031573	      5.03545030	     11.89472078	     23.83305534	     34.99772538	      0.77537439	     -1.14775531	    -12.65089221	     -4.59743810	      0.19853053	      9.22664147	      9.47223594	     -3.09980384	     12.14714635
      6.20000000	    -12.06423230	      3.56781006	     -4.57953436	     -1.72895475	     -0.03296965	     -0.25470239	     -3.40021695	     -1.95041809	      4.33673061	    -20.86762301	      4.26045733	     12.75235492	     24.61446501	     35.13364910	      1.35188351	     -0.78817362	    -13.32608697	     -5.26309504	      0.05222253	      9.29590048	      9.72806037	     -3.50714584	     11.98718990
      6.20500000	    -12.15581846	      3.97147690	     -4.33315774	     -1.72236636	     -0.03307231	     -0.25573785	     -3.15651995	     -2.55348569	      3.66707657	    -21.76293544	      3.41046171	     13.59398952	     25.32730803	     35.25079571	      1.98910817	     -0.38414037	    -13.99712002	     -5.82520089	      0.00826864	      9.25820660	      9.99984106	     -3.99667160	     11.75156113
      6.21000000	    -12.22976277	      4.35705039	     -4.05340274	     -1.71589698	     -0.03308711	     -0.25683901	     -2.88848111	     -3.15776951	      2.89151235	    -22.70615691	      2.42276554	     14.46084805	     26.23486312	     35.36012444	      2.65342784	      0.17575955	    -14.69764910	     -6.37724925	     -0.12902370	      9.04263105	     10.21803100	     -4.46967629	     11.59626078
      6.21500000	    -12.28155843	      4.78600698	     -3.78408380	     -1.70924874	     -0.03295745	     -0.25789207	     -2.65056349	     -3.81193535	      2.19461569	    -23.59297849	      1.04084326	     15.10438885	     27.68384177	     35.38334534	      3.37908190	      0.83355393	    -15.33754257	     -6.80473150	     -0.39604448	      8.39310256	     10.45056676	     -4.99877850	     11.35039223
      6.22000000	    -12.32707186	      5.14843779	     -3.51653593	     -1.70267283	     -0.03285333	     -0.25886981	     -2.34580751	     -4.42028614	      1.35849475	    -24.66696830	     -0.06328775	     16.10558097	     28.15141913	     35.43328503	      4.01000118	      1.31726931	    -16.04040702	     -7.02931133	     -0.23453667	      8.17226513	     10.65234708	     -5.46200845	     11.15589869
      6.22500000	    -12.37796601	      5.52325974	     -3.21208408	     -1.69602048	     -0.03269595	     -0.25995124	     -2.02445925	     -5.06185194	      0.49467331	    -25.74853399	     -1.38053323	     17.02183918	     28.79058783	     35.43646850	      4.71109690	      1.99750608	    -16.67275307	     -7.29769934	     -0.42150282	      7.68007081	     10.87203701	     -5.94134850	     10.92065496
      6.23000000	    -12.36731740	      5.89885536	     -2.94332185	     -1.68935281	     -0.03238978	     -0.26095407	     -1.75938858	     -5.69990743	     -0.25523313	    -26.77004071	     -3.14263892	     17.58679076	     30.08920934	     35.33043137	      5.41547749	      2.73062911	    -17.27923183	     -7.35539232	     -0.69346573	      6.51529587	     11.02237044	     -6.42835995	     10.74220664
      6.23500000	    -12.38610980	      6.17261849	     -2.66647419	     -1.68272752	     -0.03218748	     -0.26195291	     -1.40081021	     -6.25796875	     -1.09814730	    -27.96515349	     -4.64496260	     18.44297190	     30.38630382	     35.26101669	      5.99378798	      3.29271035	    -17.87604123	     -7.36790987	     -0.74187880	      6.21044991	     11.19292684	     -6.79828954	     10.54346734
      6.24000000	    -12.39492550	      6.44417528	     -2.38581870	     -1.67609915	     -0.03192739	     -0.26299187	     -1.03108623	     -6.81916436	     -1.89501931	    -29.17138363	     -6.36291516	     19.07001278	     30.75069053	     35.12600279	      6.59427266	      3.95355190	    -18.39166083	     -7.41123171	     -1.05713419	      5.72960304	     11.35075669	     -7.16433180	     10.34748722
      6.24500000	    -12.36486650	      6.71730194	     -2.18891978	     -1.66939701	     -0.03157789	     -0.26390810	     -0.67600520	     -7.37712794	     -2.53511665	    -30.35209624	     -8.37697803	     19.42727230	     31.45077600	     34.89375484	      7.14870719	      4.49308601	    -18.84651424	     -7.21275321	     -1.35605592	      4.91188266	     11.49215048	     -7.51884318	     10.23015566
      6.25000000	    -12.38006311	      6.87134439	     -1.91555436	     -1.66283814	     -0.03133572	     -0.26492938	     -0.23206145	     -7.81809372	     -3.25143047	    -31.66250750	    -10.19238566	     19.81803708	     31.28966768	     34.71172295	      7.61316101	      5.01870321	    -19.27739197	     -7.09569678	     -1.61168143	      4.81896753	     11.64105975	     -7.75884612	     10.00663055
      6.25500000	    -12.35911343	      7.06480335	     -1.75735445	     -1.65630386	     -0.03103053	     -0.26574866	      0.24687164	     -8.29304070	     -3.81298846	    -33.04079917	    -12.05083389	     19.93995030	     30.97963373	     34.44019240	      8.03197696	      5.33580601	    -19.60587267	     -6.91918901	     -1.85757213	      4.82717514	     11.76812015	     -8.02658161	      9.92427247
      6.26000000	    -12.37164964	      7.20305137	     -1.53924723	     -1.64985822	     -0.03074296	     -0.26674411	      0.77870428	     -8.71507608	     -4.37004978	    -34.43691013	    -13.95794608	     19.92053813	     30.65057635	     34.16489609	      8.44777051	      5.79302554	    -19.86920024	     -6.76274714	     -2.25027959	      4.80427092	     11.90722806	     -8.23050749	      9.76354802
      6.26500000	    -12.41803311	      7.27916898	     -1.28534127	     -1.64352009	     -0.03045899	     -0.26788635	      1.36766681	     -9.06607299	     -4.85408080	    -35.84232867	    -15.88870415	     19.78512389	     30.33569551	     33.89540396	      8.83548175	      6.34289379	    -20.08235146	     -6.62024736	     -2.75033833	      4.76516095	     12.06228608	     -8.35572124	      9.54743492
      6.27000000	    -12.41533523	      7.44079535	     -1.12719126	     -1.63726509	     -0.03016355	     -0.26881299	      1.99096893	     -9.51511192	     -5.29744774	    -37.34781256	    -17.67014732	     19.41544973	     29.91640286	     33.54945744	      9.21454182	      6.60003570	    -20.21865036	     -6.36174281	     -3.03966171	      4.84883943	     12.16685152	     -8.57075049	      9.46162037
      6.27500000	    -12.44521879	      7.55434355	     -0.95012019	     -1.63116256	     -0.02985736	     -0.26979742	      2.68695157	     -9.89415085	     -5.66717301	    -38.87474880	    -19.42708813	     18.81801033	     29.44191828	     33.21571578	      9.55891896	      6.91665966	    -20.30605258	     -6.14474780	     -3.40595817	      4.93163266	     12.27872425	     -8.73344180	      9.32709906
